<?xml version="1.0" standalone="no"?><!DOCTYPE svg PUBLIC "-//W3C//DTD SVG 1.1//EN" "http://www.w3.org/Graphics/SVG/1.1/DTD/svg11.dtd"><svg class="icon" width="200px" height="200.00px" viewBox="0 0 1024 1024" version="1.1" xmlns="http://www.w3.org/2000/svg"><path d="M464 556.8m-432 0a432 432 0 1 0 864 0 432 432 0 1 0-864 0Z" fill="#FFDA00" /><path d="M512 0C230.4 0 0 230.4 0 512s230.4 512 512 512 512-230.4 512-512S793.6 0 512 0z m0 976C256 976 48 768 48 512S256 48 512 48 976 256 976 512 768 976 512 976z" fill="#111111" /><path d="M595.2 617.6c12.8 0 25.6-9.6 25.6-22.4 0-12.8-9.6-25.6-22.4-25.6l-230.4-6.4c-12.8 0-22.4-9.6-22.4-19.2l-25.6-137.6v-6.4c0-6.4 3.2-12.8 6.4-19.2 3.2-3.2 9.6-6.4 19.2-6.4h256c12.8 0 25.6-9.6 25.6-25.6s-9.6-25.6-25.6-25.6h-256c-19.2 0-38.4 6.4-51.2 22.4-12.8 12.8-22.4 32-22.4 51.2v16l22.4 137.6c6.4 32 35.2 54.4 67.2 57.6l233.6 9.6z" fill="#111111" /><path d="M832 236.8h-60.8c-35.2 0-67.2 25.6-73.6 60.8l-60.8 352c-3.2 12.8-12.8 19.2-25.6 19.2H352c-12.8 0-25.6 9.6-25.6 25.6s9.6 25.6 25.6 25.6h259.2c35.2 0 64-25.6 70.4-60.8l60.8-352c3.2-12.8 12.8-22.4 25.6-19.2h60.8c12.8 0 25.6-9.6 25.6-22.4 0-16-9.6-28.8-22.4-28.8z" fill="#111111" /><path d="M368 800a41.6 41.6 0 1 0 83.2 0 41.6 41.6 0 1 0-83.2 0Z" fill="#111111" /><path d="M624 758.4c-22.4 0-41.6 19.2-41.6 41.6s19.2 41.6 41.6 41.6c22.4 0 41.6-19.2 41.6-41.6s-19.2-41.6-41.6-41.6z" fill="#111111" /></svg>