<?xml version="1.0" standalone="no"?><!DOCTYPE svg PUBLIC "-//W3C//DTD SVG 1.1//EN" "http://www.w3.org/Graphics/SVG/1.1/DTD/svg11.dtd"><svg class="icon" width="200px" height="200.00px" viewBox="0 0 1024 1024" version="1.1" xmlns="http://www.w3.org/2000/svg"><path d="M128.089595 427.991271l767.82081 0 0 566.087427-767.82081 0 0-566.087427Z" fill="#FFFFFF" /><path d="M55.415545 244.120723l915.501901 0 0 174.046692-915.501901 0 0-174.046692Z" fill="#FFFFFF" /><path d="M393.403988 126.740396m-104.689422 0a104.689422 104.689422 0 1 0 209.378845 0 104.689422 104.689422 0 1 0-209.378845 0Z" fill="#FFFFFF" /><path d="M630.610066 126.740396m-104.689423 0a104.689422 104.689422 0 1 0 209.378845 0 104.689422 104.689422 0 1 0-209.378845 0Z" fill="#FFFFFF" /><path d="M223.573544 427.991271h672.336861v512.063244a61.838295 61.838295 0 0 1-61.838295 61.838295H285.510218a61.838295 61.838295 0 0 1-61.838295-61.838295V427.991271H223.573544z" fill="#FFAC1F" /><path d="M223.573544 427.991271h573.971809v516.771387a57.200423 57.200423 0 0 1-57.200422 57.200422h-459.570964a57.200423 57.200423 0 0 1-57.200423-57.200422v-516.771387z" fill="#FECD57" /><path d="M156.408723 234.296867l814.508723 0 0 193.694404-814.508723 0 0-193.694404Z" fill="#65A347" /><path d="M156.408723 234.296867l705.462511 0 0 193.694404-705.462511 0 0-193.694404Z" fill="#9BD37A" /><path d="M336.850057 126.979317a104.914289 80.727083 90 1 0 161.454166 0 104.914289 80.727083 90 1 0-161.454166 0Z" fill="#FFAC1F" /><path d="M574.056134 126.979317a104.914289 80.727083 90 1 0 161.454166 0 104.914289 80.727083 90 1 0-161.454166 0Z" fill="#FFAC1F" /><path d="M568.3642 126.34688a89.454715 58.732326 90 1 0 117.464652 0 89.454715 58.732326 90 1 0-117.464652 0Z" fill="#FECD57" /><path d="M330.483523 127.780404a88.021191 58.732326 90 1 0 117.464652 0 88.021191 58.732326 90 1 0-117.464652 0Z" fill="#FECD57" /><path d="M829.757483 1024H194.242517a88.302274 88.302274 0 0 1-88.203896-88.203895v-529.841754h811.922758v529.841754a88.302274 88.302274 0 0 1-88.203896 88.203895zM150.140569 450.028191v485.767914a44.158164 44.158164 0 0 0 44.101948 44.101947h635.514966a44.158164 44.158164 0 0 0 44.101948-44.101947V450.028191z" fill="#231815" /><path d="M904.764524 450.028191H119.235476A88.302274 88.302274 0 0 1 31.031581 361.824296v-61.374508A88.302274 88.302274 0 0 1 119.235476 212.217785h785.529048a88.302274 88.302274 0 0 1 88.203895 88.203895v61.374507a88.302274 88.302274 0 0 1-88.203895 88.232004zM119.235476 256.34784a44.158164 44.158164 0 0 0-44.101948 44.101948v61.374508a44.158164 44.158164 0 0 0 44.101948 44.101947h785.529048a44.158164 44.158164 0 0 0 44.101948-44.101947v-61.374508a44.158164 44.158164 0 0 0-44.101948-44.101948z" fill="#231815" /><path d="M393.403988 253.944579a126.965263 126.965263 0 1 1 126.965263-126.965262 127.119858 127.119858 0 0 1-126.965263 126.965262z m0-209.842631a82.919532 82.919532 0 1 0 82.919532 82.919531 82.919532 82.919532 0 0 0-82.919532-82.919531z" fill="#231815" /><path d="M630.610066 253.944579A126.965263 126.965263 0 1 1 757.631545 126.979317a127.119858 127.119858 0 0 1-127.021479 126.965262z m0-209.842631a82.919532 82.919532 0 1 0 82.919531 82.919531 82.919532 82.919532 0 0 0-82.919531-82.919531zM128.089595 692.926202h767.82081v44.101947H128.089595z" fill="#231815" /><path d="M489.941999 410.690603h44.101948v591.258423h-44.101948z" fill="#231815" /></svg>