<?xml version="1.0" standalone="no"?><!DOCTYPE svg PUBLIC "-//W3C//DTD SVG 1.1//EN" "http://www.w3.org/Graphics/SVG/1.1/DTD/svg11.dtd"><svg class="icon" width="200px" height="200.00px" viewBox="0 0 1024 1024" version="1.1" xmlns="http://www.w3.org/2000/svg"><path d="M599.92 612.8c-7.04-7.584-15.488-13.52-25.376-17.808-9.888-4.288-20.88-6.432-32.96-6.432-12.096 0-23.024 2.144-32.8 6.432-9.776 4.288-18.192 10.224-25.216 17.808-7.04 7.584-12.48 16.432-16.32 26.544-3.84 10.112-5.776 20.992-5.776 32.64 0 12.528 1.92 24.064 5.776 34.608 3.84 10.544 9.28 19.664 16.32 27.36 7.024 7.696 15.44 13.744 25.216 18.128 9.776 4.4 20.72 6.592 32.8 6.592 12.08 0 23.072-2.192 32.96-6.592 9.888-4.4 18.352-10.432 25.376-18.128 7.024-7.696 12.464-16.816 16.32-27.36 3.84-10.544 5.776-22.08 5.776-34.608 0-11.648-1.92-22.528-5.776-32.64-3.856-10.112-9.296-18.96-16.32-26.544z"  /><path d="M935.696 500.8c-31.584-88.16-77.904-159.328-138.96-213.584-42.56-36.608-82.704-55.936-120.416-57.952l-0.048-0.032c8.896 29.824 13.712 55.584 14.416 77.296 0.736 21.696-1.008 37.968-5.12 48.8-4.144 10.848-10.48 19.504-19.04 25.952-8.576 6.432-15.76 10.16-21.616 11.184-5.824 1.024-12.192 1.536-19.04 1.536-30.208 0.672-54.368-6.448-72.56-21.344-18.192-14.912-29.504-34.064-33.968-57.488-4.448-23.424-5.664-48.832-3.568-76.288 2.064-27.44 7.056-53.552 14.928-78.304 7.856-24.752 16.08-45.936 24.672-63.552 8.592-17.6 16.336-28.112 23.184-31.52-0.704 0-4.624 0.352-11.84 0.992a552.924 552.924 0 0 0-22.128 2.544c-7.568 1.008-17.328 2.896-29.36 5.584a325.41 325.41 0 0 0-35.52 10.192c-11.648 4.08-24.848 9.84-39.632 17.28a326.582 326.582 0 0 0-42.176 25.408c-13.376 9.504-27.44 21.376-42.208 35.616-14.752 14.224-28.624 29.824-41.664 46.784C294.816 237.696 282.96 266 278.48 294.8c-4.448 28.8-4.448 52.88 0 72.208 4.48 19.328 8.256 37.456 11.36 54.416 3.12 16.928 0.88 30.816-6.672 41.68-7.584 10.848-23.344 19.312-47.36 25.392-15.808 2.736-28.304-1.168-37.584-11.664-9.264-10.496-15.088-24.064-17.488-40.672-2.4-16.624-3.424-32.576-3.12-47.824 0.352-15.248 1.888-28.288 4.672-39.12-10.976-0.688-27.792 17.616-50.448 54.912C87.936 476.016 63.904 551.28 59.776 629.92 52.88 760.752 110.56 853.312 232.72 907.536 310.224 941.44 412.112 958.4 538.384 958.4c204.496 1.36 335.904-55.248 394.224-169.84 41.84-80.624 42.864-176.56 3.088-287.76zM378.384 790.32h-41.536V687.472h-109.12V790.32h-41.536V556.928h41.536v92.96h109.12v-92.96h41.536V790.32z m277.904-67.248c-6.16 14.944-14.72 27.808-25.712 38.576-10.992 10.768-24.064 19.184-39.232 25.216-15.168 6.048-31.872 9.168-50.112 9.392-18.016 0-34.56-2.912-49.616-8.736-15.056-5.824-28.016-14.064-38.896-24.72-10.88-10.656-19.392-23.456-25.552-38.4-6.16-14.944-9.232-31.536-9.232-49.776 0-18.672 3.072-35.648 9.232-50.928 6.144-15.264 14.672-28.288 25.552-39.072 10.88-10.768 23.84-19.056 38.896-24.896 15.056-5.824 31.584-8.736 49.616-8.736 18.24-0.224 34.944 2.464 50.112 8.08 15.168 5.6 28.24 13.792 39.232 24.56 10.992 10.768 19.552 23.728 25.712 38.896 6.144 15.168 9.232 32.096 9.232 50.768 0 18.24-3.088 34.832-9.232 49.776z m209.664-128.576h-71.536v195.808H752.88V594.496h-71.536v-37.584h184.608v37.584z"  /></svg>