<?xml version="1.0" standalone="no"?><!DOCTYPE svg PUBLIC "-//W3C//DTD SVG 1.1//EN" "http://www.w3.org/Graphics/SVG/1.1/DTD/svg11.dtd"><svg class="icon" width="200px" height="200.00px" viewBox="0 0 1024 1024" version="1.1" xmlns="http://www.w3.org/2000/svg"><path d="M444.267 1023.308H262.48c-39.16 0-75.475-17.354-102.258-48.865-24.517-28.844-38.578-67.343-38.578-105.624V596.294H90.897c-46.248 0-73.907-27.698-84.43-53.719-11.697-27.612-9.316-71.844 32.314-113.581L408.898 45.241C434.98 16.925 472.561 0.691 512.06 0.691c37.259 0 74.675 16.05 102.656 44.033l0.303 0.307 370.32 383.962c45.169 45.28 41.906 90.577 32.382 111.543-9.057 25.166-36.307 53.806-84.5 53.806H902.48v272.524c0 39.61-13.73 77.413-38.657 106.448-26.6 30.98-62.889 48.042-102.182 48.042H579.853v-337.77c0-4.691 0.109-9.13 0.207-13.047 0.126-5.043 0.284-11.504-0.04-15.47-1.288-0.155-3.097-0.283-5.566-0.283h-124.79c-2.466 0-4.275 0.128-5.565 0.284-0.323 3.965-0.164 10.428-0.04 15.475 0.098 3.915 0.208 8.352 0.208 13.041v339.722zM512.06 48.39c-26.272 0-51.134 10.685-68.213 29.314l-0.414 0.439L72.816 462.415l-0.152 0.152c-32.374 32.377-24.207 56.899-22.24 61.484l0.222 0.54c2.887 7.219 12.588 24.005 40.251 24.005h78.446v320.222c0 51.573 37.426 106.791 93.138 106.791h134.087V683.586c0-4.1-0.098-8.047-0.192-11.863-0.449-18.129-0.912-36.875 12.607-50.733 12.157-12.463 29.04-13.903 40.681-13.903h124.79c11.643 0 28.526 1.44 40.683 13.903 13.52 13.858 13.055 32.602 12.608 50.729-0.096 3.817-0.194 7.765-0.194 11.867v290.071h134.09c57.529 0 93.14-55.433 93.14-106.791V546.643h78.44c29.89 0 37.994-17.363 39.769-22.685l0.536-1.612 0.761-1.521c0.12-0.237 10.872-24.555-22.83-58.257l-0.301-0.308L580.842 78.306C561.758 59.29 536.7 48.39 512.06 48.39z" /></svg>