<?xml version="1.0" standalone="no"?><!DOCTYPE svg PUBLIC "-//W3C//DTD SVG 1.1//EN" "http://www.w3.org/Graphics/SVG/1.1/DTD/svg11.dtd"><svg class="icon" width="200px" height="200.00px" viewBox="0 0 1024 1024" version="1.1" xmlns="http://www.w3.org/2000/svg"><path d="M1011.81 261.07a27.46 27.46 0 0 0-1.9-9.44c-0.25-0.63-0.66-1.13-1-1.73a27.27 27.27 0 0 0-2.51-4.55L839.77 23.12A27.74 27.74 0 0 0 817.56 12H206.44a27.74 27.74 0 0 0-22.22 11.12L17.56 245.34a27.31 27.31 0 0 0-2.56 4.6c-0.28 0.58-0.68 1.07-0.93 1.68a27.44 27.44 0 0 0-1.91 9.47c0 0.32-0.18 0.59-0.18 0.91v69.44C12 431 93 512 192.56 512c39.47 0 117.62 0 156.87-48.72C395.29 512 478.08 512 512 512s116.71 0 162.57-48.72C713.82 512 792 512 831.44 512 931 512 1012 431 1012 331.44V262c0-0.33-0.18-0.61-0.19-0.93zM220.33 67.56h583.34l125 166.67H95.33z m611.11 388.88c-105.08 0-125-24.41-125-69.44v-13.89a27.78 27.78 0 1 0-55.56 0c0 50-23.61 83.33-138.89 83.33S373.1 423.13 373.1 373.11a27.78 27.78 0 1 0-55.56 0V387c0 45-19.92 69.44-125 69.44a125.14 125.14 0 0 1-125-125v-41.66h888.9v41.67a125.14 125.14 0 0 1-125 124.99zM928.67 567.56a27.76 27.76 0 0 0-27.78 27.78v329c0 17.39-11.23 32.06-24.52 32.06H147.62c-13.28 0-24.51-14.68-24.51-32.06v-329a27.78 27.78 0 0 0-55.56 0v329c0 48.31 35.92 87.62 80.06 87.62h728.76c44.16 0 80.08-39.31 80.08-87.62v-329a27.76 27.76 0 0 0-27.78-27.78z" /></svg>