<?xml version="1.0" standalone="no"?><!DOCTYPE svg PUBLIC "-//W3C//DTD SVG 1.1//EN" "http://www.w3.org/Graphics/SVG/1.1/DTD/svg11.dtd"><svg class="icon" width="200px" height="200.00px" viewBox="0 0 1024 1024" version="1.1" xmlns="http://www.w3.org/2000/svg"><path d="M895.386272 220.901109H128.285247L58.553069 423.87287c0 62.553685 50.736545 113.279996 113.328092 113.279996 62.572104 0 113.328092-50.687426 113.328091-113.279996 0 62.553685 50.735521 113.279996 113.308649 113.279996 62.573127 0 113.328092-50.687426 113.328091-113.279996 0 62.553685 50.735521 113.279996 113.328092 113.279996 62.573127 0 113.328092-50.687426 113.328092-113.279996 0 62.553685 50.735521 113.279996 113.309672 113.279996 62.59257 0 113.328092-50.687426 113.328091-113.279996L895.386272 220.901109m-690.400133-35.510772h613.719706c23.097044 0 41.844014-15.311731 41.844014-34.202986 0-18.890232-18.745946-34.230616-41.844014-34.230616H204.986139c-23.096021 0-41.84299 15.310707-41.84299 34.230616 0 18.920932 18.74697 34.202986 41.84299 34.202986M738.482733 542.648021c-30.757514 28.832675-70.753437 44.63457-113.309672 44.634569s-82.59002-15.801894-113.328092-44.634569c-30.775934 28.832675-70.77288 44.63457-113.328091 44.634569s-82.588997-15.801894-113.328092-44.634569c-30.775934 28.832675-70.77288 44.63457-113.328092 44.634569-2.925632 0-5.831822-0.067538-8.718568-0.211824v249.820766c0 41.632189 37.551244 68.443835 69.733201 68.443835h557.902446c42.015929 0 69.75162-31.06553 69.75162-68.443835V587.070766c-2.907213 0.144286-5.813403 0.231267-8.739035 0.231267-42.516326 0-82.550111-15.821337-113.307625-44.654012m0 0" /></svg>