<?xml version="1.0" standalone="no"?><!DOCTYPE svg PUBLIC "-//W3C//DTD SVG 1.1//EN" "http://www.w3.org/Graphics/SVG/1.1/DTD/svg11.dtd"><svg class="icon" width="200px" height="200.00px" viewBox="0 0 1024 1024" version="1.1" xmlns="http://www.w3.org/2000/svg"><path d="M209.966545 46.545455a46.545455 46.545455 0 0 1 3.49091 92.974545L209.966545 139.636364H186.181818a46.545455 46.545455 0 0 0-46.429091 43.054545L139.636364 186.181818v651.636364a46.545455 46.545455 0 0 0 43.054545 46.429091L186.181818 884.363636h651.636364a46.545455 46.545455 0 0 0 46.429091-43.054545L884.363636 837.818182V186.181818a46.545455 46.545455 0 0 0-43.054545-46.429091L837.818182 139.636364h-21.992727a46.545455 46.545455 0 0 1-3.467637-92.974546l3.490909-0.116363H837.818182a139.636364 139.636364 0 0 1 139.543273 134.4L977.454545 186.181818v651.636364a139.636364 139.636364 0 0 1-134.4 139.543273L837.818182 977.454545H186.181818a139.636364 139.636364 0 0 1-139.543273-134.4L46.545455 837.818182V186.181818a139.636364 139.636364 0 0 1 134.4-139.543273L186.181818 46.545455h23.784727zM698.181818 581.818182a46.545455 46.545455 0 1 1 0 93.090909H325.818182a46.545455 46.545455 0 1 1 0-93.090909h372.363636z m0-256a46.545455 46.545455 0 1 1 0 93.090909H325.818182a46.545455 46.545455 0 1 1 0-93.090909h372.363636zM654.592 46.545455a46.545455 46.545455 0 0 1 3.490909 92.974545l-3.490909 0.116364H375.901091a46.545455 46.545455 0 0 1-3.490909-92.974546l3.490909-0.116363h278.690909z" /></svg>