<?xml version="1.0" standalone="no"?><!DOCTYPE svg PUBLIC "-//W3C//DTD SVG 1.1//EN" "http://www.w3.org/Graphics/SVG/1.1/DTD/svg11.dtd"><svg class="icon" width="200px" height="179.33px" viewBox="0 0 1142 1024" version="1.1" xmlns="http://www.w3.org/2000/svg"><path d="M938.97906568 48.94130624h-161.24826291c-7.61802885-33.01145461-38.09014143-58.40488322-73.64094089-58.4048832h-79.98929595c-10.15737088-25.39342855-34.28112846-41.8991545-62.213899-41.89915452s-52.05652535 16.50572871-62.21389626 41.89915452h-81.25896692c-35.55079946 0-66.02291205 25.39342855-73.64094091 58.4048832h-161.2482629c-41.8991545 0-73.64094092 34.28112846-73.64094091 76.18028292v820.2077068c0 41.8991545 33.01145461 76.18028295 73.64094091 76.18028299h754.18479475c41.8991545 0 77.44995393-34.28112846 77.44995392-76.18028299v-820.2077068c1.26967099-41.8991545-34.28112846-76.18028295-76.18028293-76.18028292z m-375.82272492 36.82047042c34.28112846 0 60.94422524 27.93277059 60.94422517 60.94422523 0 34.28112846-27.93277059 60.94422524-60.94422517 60.94422804-34.28112846 0-60.94422524-27.93277059-60.94422809-60.94422804s26.66309961-60.94422524 60.94422809-60.94422523z m232.34985894 631.0266733c0 15.23605771-12.69671286 27.93277059-27.93277063 27.93277067h-408.83417954c-15.23605771 0-27.93277059-12.69671286-27.93277064-27.93277067v-25.39342851c0-15.23605771 12.69671286-27.93277059 27.93277064-27.93277061h408.83417954c15.23605771 0 27.93277059 12.69671286 27.93277063 27.93277061v25.39342851z m0-257.74329039c0 15.23605771-12.69671286 27.93277059-27.93277063 27.93277068h-408.83417954c-15.23605771 0-27.93277059-12.69671286-27.93277064-27.93277068v-25.3934257c0-15.23605771 12.69671286-27.93277059 27.93277064-27.9327706h408.83417954c15.23605771 0 27.93277059 12.69671286 27.93277063 27.9327706v25.3934257z" /></svg>