<?xml version="1.0" standalone="no"?><!DOCTYPE svg PUBLIC "-//W3C//DTD SVG 1.1//EN" "http://www.w3.org/Graphics/SVG/1.1/DTD/svg11.dtd"><svg class="icon" width="200px" height="200.00px" viewBox="0 0 1024 1024" version="1.1" xmlns="http://www.w3.org/2000/svg"><path d="M512 96c-132.3 0-240 107.7-240 240s107.7 240 240 240 240-107.7 240-240S644.3 96 512 96z"  /><path d="M753.8 589.7c-21.6-15.5-50.6-16-72.7-1.2C632.7 621 574.5 640 512 640s-120.8-19-169.1-51.5c-22-14.8-51.1-14.3-72.7 1.2-18.6 13.3-36.1 28.1-52.2 44.3-58.4 58.4-99.5 133.9-115.1 218.3-7.3 39.4 22.9 75.7 62.9 75.7h692.3c39.9 0 70.2-36.1 63-75.4-19.8-107.9-81.4-201.3-167.3-262.9z"  /></svg>