<?xml version="1.0" standalone="no"?><!DOCTYPE svg PUBLIC "-//W3C//DTD SVG 1.1//EN" "http://www.w3.org/Graphics/SVG/1.1/DTD/svg11.dtd"><svg class="icon" width="200px" height="200.00px" viewBox="0 0 1024 1024" version="1.1" xmlns="http://www.w3.org/2000/svg"><path d="M925.2 338.2c-22.6-53.3-54.8-101.2-96-142.3-41.1-41.1-89-73.4-142.3-96C631.7 76.6 573 64.7 512.6 64.7S393.5 76.6 338.3 99.9c-53.3 22.6-101.2 54.8-142.3 96-41.1 41.1-73.4 89-96 142.3-23.4 55.2-35.2 113.9-35.2 174.3 0 60.4 11.8 119.1 35.2 174.3 22.6 53.3 54.8 101.2 96 142.3 41.1 41.1 89 73.4 142.3 96 55.2 23.4 113.9 35.2 174.3 35.2s119.1-11.8 174.3-35.2c35.9-15.2 69.3-34.8 99.8-58.5l-0.1-0.1c9.1-7.4 14.8-18.6 14.8-31.2 0-22.3-18-40.3-40.3-40.3-9.2 0-17.7 3.1-24.5 8.3l-0.2-0.3c-62 47.9-139.7 76.4-223.9 76.4-202.3 0-366.9-164.6-366.9-366.9s164.6-366.9 366.9-366.9c202.3 0 366.9 164.6 366.9 366.9 0 66.2-17.6 128.3-48.4 182l0.4 0.2c-4.4 6.5-7 14.2-7 22.6 0 22.3 18 40.3 40.3 40.3 16 0 29.8-9.3 36.3-22.8l0.2 0.1c8.9-15.5 16.8-31.5 23.8-48.1 23.4-55.2 35.2-113.9 35.2-174.3 0.2-60.4-11.6-119.1-35-174.3z"  /><path d="M695.1 605.5c-23.1-33.3-54.5-59.4-91.2-76 36-28.1 57.2-71 57.2-117 0-81.8-66.6-148.4-148.4-148.4-81.8 0-148.4 66.6-148.4 148.4 0 46 21.2 88.9 57.2 117-36.7 16.6-68.1 42.7-91.2 76-25.8 37.2-39.4 80.8-39.4 126.3v0.6c0 15.8 12.8 28.6 28.6 28.6 15.7 0 28.6-12.8 28.6-28.6 0-0.5 0-0.8-0.1-1.1 0.3-90.7 74.1-164.4 164.8-164.4 90.9 0 164.8 73.9 164.8 164.8 0 0.4 0 9.7 4.3 16.2 5.1 7.8 14.8 13 24.3 13 15.7 0 28.4-12.8 28.4-28.4v-0.3-0.5c-0.1-45.4-13.7-89-39.5-126.2zM512.6 502.8c-49.8 0-90.3-40.5-90.3-90.3s40.5-90.3 90.3-90.3 90.3 40.5 90.3 90.3-40.5 90.3-90.3 90.3z"  /></svg>